<svg width="24" height="24" viewBox="0 0 24 24" fill="none" xmlns="http://www.w3.org/2000/svg">
<g clip-path="url(#clip0_129_2211)">
<path fill-rule="evenodd" clip-rule="evenodd" d="M1.71436 9.42871C1.71436 16.056 5.00007 21.4287 11.5715 21.4287C18.1429 21.4287 21.4286 16.056 21.4286 9.42871H1.71436Z" fill="#FFF0E1" stroke="#FFF0E1" stroke-width="4" stroke-linecap="round" stroke-linejoin="round"/>
<circle cx="15.8572" cy="16.7144" r="6.78571" fill="#272726" stroke="#FFF0E1"/>
<path d="M19.7451 17.7551H16.6838V20.8164C16.6838 20.9787 16.6193 21.1345 16.5045 21.2493C16.3897 21.3641 16.234 21.4286 16.0716 21.4286C15.9092 21.4286 15.7535 21.3641 15.6387 21.2493C15.5239 21.1345 15.4594 20.9787 15.4594 20.8164V17.7551H12.3981C12.2358 17.7551 12.08 17.6906 11.9652 17.5758C11.8504 17.461 11.7859 17.3053 11.7859 17.1429C11.7859 16.9805 11.8504 16.8248 11.9652 16.71C12.08 16.5952 12.2358 16.5306 12.3981 16.5306H15.4594V13.4694C15.4594 13.307 15.5239 13.1513 15.6387 13.0365C15.7535 12.9217 15.9092 12.8572 16.0716 12.8572C16.234 12.8572 16.3897 12.9217 16.5045 13.0365C16.6193 13.1513 16.6838 13.307 16.6838 13.4694V16.5306H19.7451C19.9074 16.5306 20.0632 16.5952 20.178 16.71C20.2928 16.8248 20.3573 16.9805 20.3573 17.1429C20.3573 17.3053 20.2928 17.461 20.178 17.5758C20.0632 17.6906 19.9074 17.7551 19.7451 17.7551Z" fill="#FFF0E1"/>
<path d="M11.1429 6.00007V1.71436M16.2857 6.00007V3.85721M6 6.00007V3.85721" stroke="#FFF0E1" stroke-width="1.6" stroke-linecap="round" stroke-linejoin="round"/>
</g>
<defs>
<clipPath id="clip0_129_2211">
<rect width="24" height="24" fill="white"/>
</clipPath>
</defs>
</svg>
