<svg width="25" height="24" viewBox="0 0 25 24" fill="none" xmlns="http://www.w3.org/2000/svg">
    <g clip-path="url(#clip0_668_67)">
        <path fill-rule="evenodd" clip-rule="evenodd"
              d="M1.96436 9.42871C1.96436 16.056 5.25007 21.4287 11.8215 21.4287C18.3929 21.4287 21.6786 16.056 21.6786 9.42871H1.96436Z"
              fill="#FFF0E1" stroke="#FFF0E1" stroke-width="4" stroke-linecap="round" stroke-linejoin="round"/>
        <circle cx="16.1072" cy="16.7144" r="6.78571" fill="#272726" stroke="#FFF0E1"/>
        <path d="M19.995 17.7551H16.9338V20.8164C16.9338 20.9787 16.8693 21.1345 16.7544 21.2493C16.6396 21.3641 16.4839 21.4286 16.3215 21.4286C16.1591 21.4286 16.0034 21.3641 15.8886 21.2493C15.7738 21.1345 15.7093 20.9787 15.7093 20.8164V17.7551H12.648C12.4857 17.7551 12.3299 17.6906 12.2151 17.5758C12.1003 17.461 12.0358 17.3053 12.0358 17.1429C12.0358 16.9805 12.1003 16.8248 12.2151 16.71C12.3299 16.5952 12.4857 16.5306 12.648 16.5306H15.7093V13.4694C15.7093 13.307 15.7738 13.1513 15.8886 13.0365C16.0034 12.9217 16.1591 12.8572 16.3215 12.8572C16.4839 12.8572 16.6396 12.9217 16.7544 13.0365C16.8693 13.1513 16.9338 13.307 16.9338 13.4694V16.5306H19.995C20.1574 16.5306 20.3131 16.5952 20.4279 16.71C20.5427 16.8248 20.6072 16.9805 20.6072 17.1429C20.6072 17.3053 20.5427 17.461 20.4279 17.5758C20.3131 17.6906 20.1574 17.7551 19.995 17.7551Z"
              fill="#FFF0E1"/>
        <path d="M11.3929 6.00007V1.71436M16.5358 6.00007V3.85721M6.25006 6.00007V3.85721" stroke="#FFF0E1"
              stroke-width="1.6" stroke-linecap="round" stroke-linejoin="round"/>
</g>
<defs>
    <clipPath id="clip0_668_67">
        <rect width="24" height="24" fill="white" transform="translate(0.25)"/>
</clipPath>
</defs>
</svg>
