<svg width="25" height="24" viewBox="0 0 25 24" fill="none" xmlns="http://www.w3.org/2000/svg">
    <rect x="0.5" width="24" height="24" rx="12" fill="#FFF0E1"/>
    <path d="M11.777 10.1065V12.7351C11.777 12.9851 11.9128 13.2208 12.127 13.3494L14.3556 14.6708C14.6128 14.8208 14.9413 14.7351 15.0913 14.4851C15.2413 14.228 15.1628 13.8994 14.9056 13.7494L12.8556 12.528V10.0994C12.8485 9.81367 12.6056 9.57081 12.3128 9.57081C12.0199 9.57081 11.777 9.81367 11.777 10.1065ZM18.9199 10.6422V6.86367C18.9199 6.54224 18.5342 6.38509 18.3128 6.61367L17.0413 7.88509C16.3722 7.21596 15.5638 6.70261 14.6737 6.38161C13.7835 6.06061 12.8335 5.93986 11.8913 6.02795C8.89848 6.29938 6.43419 8.70652 6.10562 11.6994C5.93193 13.3775 6.42489 15.0566 7.47815 16.3746C8.5314 17.6925 10.0605 18.5436 11.7356 18.7442C13.4108 18.9448 15.0976 18.4788 16.4323 17.4469C17.7669 16.4149 18.6424 14.8996 18.8699 13.228C18.9199 12.7994 18.5842 12.428 18.1556 12.428C17.7985 12.428 17.4985 12.6922 17.4556 13.0422C17.1485 15.5351 14.9985 17.4637 12.4199 17.428C9.7699 17.3922 7.53419 15.1565 7.49133 12.4994C7.44848 9.71367 9.71276 7.42795 12.4913 7.42795C13.8699 7.42795 15.1199 7.99224 16.027 8.89224L14.5342 10.3851C14.3056 10.6137 14.4628 10.9994 14.7842 10.9994H18.5628C18.7628 10.9994 18.9199 10.8422 18.9199 10.6422Z"
          fill="#318653"/>
</svg>
