<svg width="24" height="24" viewBox="0 0 24 24" fill="none" xmlns="http://www.w3.org/2000/svg">
<rect width="24" height="24" rx="12" fill="#FFF0E1"/>
<path d="M11.2771 10.1065V12.7351C11.2771 12.9851 11.4129 13.2208 11.6271 13.3494L13.8557 14.6708C14.1129 14.8208 14.4414 14.7351 14.5914 14.4851C14.7414 14.228 14.6629 13.8994 14.4057 13.7494L12.3557 12.528V10.0994C12.3486 9.81367 12.1057 9.57081 11.8129 9.57081C11.52 9.57081 11.2771 9.81367 11.2771 10.1065ZM18.42 10.6422V6.86367C18.42 6.54224 18.0343 6.38509 17.8129 6.61367L16.5414 7.88509C15.8723 7.21596 15.0639 6.70261 14.1737 6.38161C13.2836 6.06061 12.3336 5.93986 11.3914 6.02795C8.39857 6.29938 5.93428 8.70652 5.60571 11.6994C5.43203 13.3775 5.92498 15.0566 6.97824 16.3746C8.03149 17.6925 9.56062 18.5436 11.2357 18.7442C12.9109 18.9448 14.5977 18.4788 15.9324 17.4469C17.267 16.4149 18.1425 14.8996 18.37 13.228C18.42 12.7994 18.0843 12.428 17.6557 12.428C17.2986 12.428 16.9986 12.6922 16.9557 13.0422C16.6486 15.5351 14.4986 17.4637 11.92 17.428C9.27 17.3922 7.03428 15.1565 6.99142 12.4994C6.94857 9.71367 9.21285 7.42795 11.9914 7.42795C13.37 7.42795 14.62 7.99224 15.5271 8.89224L14.0343 10.3851C13.8057 10.6137 13.9629 10.9994 14.2843 10.9994H18.0629C18.2629 10.9994 18.42 10.8422 18.42 10.6422Z" fill="#318653"/>
</svg>
